<?xml version="1.0" encoding="iso-8859-1"?>
<!-- Generator: Adobe Illustrator 19.0.0, SVG Export Plug-In . SVG Version: 6.00 Build 0)  -->
<svg version="1.1" id="Capa_1" xmlns="http://www.w3.org/2000/svg" xmlns:xlink="http://www.w3.org/1999/xlink" x="0px" y="0px"
	 viewBox="0 0 512 512" style="enable-background:new 0 0 512 512;" xml:space="preserve">
<path style="fill:#6F6571;" d="M301.36,512H111.664c-13.665,0-24.743-11.078-24.743-24.743V107.865
	c0-13.665,11.078-24.743,24.743-24.743H301.36c13.665,0,24.743,11.078,24.743,24.743v379.392
	C326.104,500.922,315.026,512,301.36,512z"/>
<path style="fill:#5D5360;" d="M301.36,83.122H138.356c-6.91,17.717-10.843,36.925-10.843,57.087
	c0,86.903,70.448,157.352,157.351,157.352c14.294,0,28.075-2.075,41.238-5.647V107.865C326.104,94.2,315.026,83.122,301.36,83.122z"
	/>
<path style="fill:#FFFFFF;" d="M301.36,446.019H111.664c-4.555,0-8.248-3.693-8.248-8.248V116.113c0-4.555,3.693-8.248,8.248-8.248
	H301.36c4.555,0,8.248,3.693,8.248,8.248v321.658C309.608,442.326,305.915,446.019,301.36,446.019z"/>
<path style="fill:#EDEBED;" d="M301.36,107.865H130.873c-2.183,10.442-3.359,21.253-3.359,32.344
	c0,86.903,70.448,157.352,157.351,157.352c8.44,0,16.662-0.854,24.743-2.133V116.113
	C309.608,111.558,305.915,107.865,301.36,107.865z"/>
<circle style="fill:#CDF5A0;" cx="284.868" cy="140.21" r="140.21"/>
<path style="fill:#FFFFFF;" d="M315.648,156.082l-7.746,7.746c-7.9-6.616-16.108-14.103-24.33-22.325
	c-8.222-8.222-15.71-16.43-22.325-24.33l7.746-7.746c4.831-4.831,4.831-12.665,0-17.496l-23.328-23.328
	c-4.831-4.831-12.665-4.831-17.496,0l-13.663,13.663c-4.805,4.805-6.228,12.027-3.496,18.249
	c7.071,16.104,25.114,40.194,49.235,64.315c24.121,24.121,48.211,42.164,64.315,49.235c6.222,2.732,13.444,1.309,18.249-3.496
	l13.663-13.663c4.831-4.831,4.831-12.665,0-17.496l-23.328-23.328C328.313,151.251,320.48,151.251,315.648,156.082z"/>
<g>
	<circle style="fill:#CDF5A0;" cx="152.258" cy="314.06" r="16.495"/>
	<circle style="fill:#CDF5A0;" cx="152.258" cy="380.04" r="16.495"/>
</g>
<path style="fill:#B4E6A0;" d="M309.284,256c-77.435,0-140.21-62.774-140.21-140.21c0-32.489,11.154-62.315,29.701-86.089
	c-32.889,25.659-54.121,65.563-54.121,110.509c0,77.436,62.774,140.21,140.21,140.21c44.947,0,84.85-21.231,110.509-54.121
	C371.599,244.846,341.774,256,309.284,256z"/>
<g>
	<path style="fill:#867E88;" d="M268.37,322.304h-65.981c-4.555,0-8.248-3.693-8.248-8.248l0,0c0-4.555,3.693-8.248,8.248-8.248
		h65.981c4.555,0,8.248,3.693,8.248,8.248l0,0C276.617,318.612,272.925,322.304,268.37,322.304z"/>
	<path style="fill:#867E88;" d="M268.37,388.285h-65.981c-4.555,0-8.248-3.693-8.248-8.248l0,0c0-4.555,3.693-8.248,8.248-8.248
		h65.981c4.555,0,8.248,3.693,8.248,8.248l0,0C276.617,384.593,272.925,388.285,268.37,388.285z"/>
</g>
<path style="fill:#EDEBED;" d="M336.608,202.017c-16.104-7.071-40.194-25.114-64.315-49.235
	c-24.121-24.121-42.164-48.211-49.235-64.315c-2.732-6.222-1.309-13.445,3.496-18.249l-12.048,12.048
	c-4.805,4.805-6.228,12.027-3.496,18.249c7.071,16.104,25.114,40.194,49.235,64.315c24.121,24.121,48.211,42.164,64.315,49.235
	c6.222,2.732,13.445,1.309,18.249-3.496l12.049-12.048C350.053,203.325,342.831,204.748,336.608,202.017z"/>
<path style="fill:#5D5360;" d="M111.664,512H301.36c13.416,0,24.33-10.679,24.724-24H86.94C87.334,501.321,98.248,512,111.664,512z"
	/>
<path style="fill:#867E88;" d="M214.76,491.381h-16.495c-6.833,0-12.371-5.539-12.371-12.371l0,0
	c0-6.833,5.539-12.371,12.371-12.371h16.495c6.833,0,12.371,5.539,12.371,12.371l0,0
	C227.131,485.842,221.592,491.381,214.76,491.381z"/>
<g>
</g>
<g>
</g>
<g>
</g>
<g>
</g>
<g>
</g>
<g>
</g>
<g>
</g>
<g>
</g>
<g>
</g>
<g>
</g>
<g>
</g>
<g>
</g>
<g>
</g>
<g>
</g>
<g>
</g>
</svg>
